<mxfile host="app.diagrams.net" modified="2020-10-02T07:58:58.689Z" agent="5.0 (Windows NT 10.0; Win64; x64) AppleWebKit/537.36 (KHTML, like Gecko) Chrome/84.0.4147.105 Safari/537.36" etag="25OIcV_e9j-Si35UD4h9" version="13.7.7" type="github">
  <diagram id="9Fat0kqAcrcc--f_UTKk" name="Page-1">
    <mxGraphModel dx="1673" dy="896" grid="1" gridSize="10" guides="1" tooltips="1" connect="1" arrows="1" fold="1" page="1" pageScale="1" pageWidth="827" pageHeight="1169" math="0" shadow="0">
      <root>
        <mxCell id="0" />
        <mxCell id="1" parent="0" />
        <mxCell id="MCb7gNTajN006iMk4Vwa-53" value="" style="rounded=0;whiteSpace=wrap;html=1;fillColor=none;" vertex="1" parent="1">
          <mxGeometry x="70" y="90" width="740" height="240" as="geometry" />
        </mxCell>
        <mxCell id="fPIb7x8nyOzm0vNO1Mxm-2" value="song" style="whiteSpace=wrap;html=1;align=center;" parent="1" vertex="1">
          <mxGeometry x="190" y="450" width="100" height="40" as="geometry" />
        </mxCell>
        <mxCell id="fPIb7x8nyOzm0vNO1Mxm-3" value="musician" style="whiteSpace=wrap;html=1;align=center;" parent="1" vertex="1">
          <mxGeometry x="560" y="190" width="100" height="40" as="geometry" />
        </mxCell>
        <mxCell id="fPIb7x8nyOzm0vNO1Mxm-6" value="year ( start recording)" style="ellipse;whiteSpace=wrap;html=1;align=center;" parent="1" vertex="1">
          <mxGeometry x="260" y="140" width="100" height="40" as="geometry" />
        </mxCell>
        <mxCell id="fPIb7x8nyOzm0vNO1Mxm-7" value="number of memeber" style="ellipse;whiteSpace=wrap;html=1;align=center;" parent="1" vertex="1">
          <mxGeometry x="90" y="190" width="100" height="40" as="geometry" />
        </mxCell>
        <mxCell id="fPIb7x8nyOzm0vNO1Mxm-8" value="genre of music" style="ellipse;whiteSpace=wrap;html=1;align=center;" parent="1" vertex="1">
          <mxGeometry x="300" y="190" width="100" height="40" as="geometry" />
        </mxCell>
        <mxCell id="fPIb7x8nyOzm0vNO1Mxm-12" value="SIN" style="ellipse;whiteSpace=wrap;html=1;align=center;fontStyle=4;" parent="1" vertex="1">
          <mxGeometry x="490" y="130" width="100" height="40" as="geometry" />
        </mxCell>
        <mxCell id="fPIb7x8nyOzm0vNO1Mxm-13" value="first name" style="ellipse;whiteSpace=wrap;html=1;align=center;fontStyle=4;" parent="1" vertex="1">
          <mxGeometry x="590" y="120" width="100" height="40" as="geometry" />
        </mxCell>
        <mxCell id="fPIb7x8nyOzm0vNO1Mxm-14" value="last name" style="ellipse;whiteSpace=wrap;html=1;align=center;fontStyle=4;" parent="1" vertex="1">
          <mxGeometry x="670" y="150" width="100" height="40" as="geometry" />
        </mxCell>
        <mxCell id="fPIb7x8nyOzm0vNO1Mxm-15" value="instrument" style="ellipse;whiteSpace=wrap;html=1;align=center;" parent="1" vertex="1">
          <mxGeometry x="700" y="190" width="100" height="40" as="geometry" />
        </mxCell>
        <mxCell id="fPIb7x8nyOzm0vNO1Mxm-16" value="email address" style="ellipse;whiteSpace=wrap;html=1;align=center;" parent="1" vertex="1">
          <mxGeometry x="680" y="230" width="100" height="40" as="geometry" />
        </mxCell>
        <mxCell id="fPIb7x8nyOzm0vNO1Mxm-17" value="title" style="ellipse;whiteSpace=wrap;html=1;align=center;" parent="1" vertex="1">
          <mxGeometry x="30" y="545" width="100" height="40" as="geometry" />
        </mxCell>
        <mxCell id="fPIb7x8nyOzm0vNO1Mxm-18" value="ISRC" style="ellipse;whiteSpace=wrap;html=1;align=center;fontStyle=4;" parent="1" vertex="1">
          <mxGeometry x="80" y="350" width="100" height="40" as="geometry" />
        </mxCell>
        <mxCell id="fPIb7x8nyOzm0vNO1Mxm-20" value="duration" style="ellipse;whiteSpace=wrap;html=1;align=center;" parent="1" vertex="1">
          <mxGeometry x="30" y="400" width="100" height="40" as="geometry" />
        </mxCell>
        <mxCell id="fPIb7x8nyOzm0vNO1Mxm-22" value="the year of record" style="ellipse;whiteSpace=wrap;html=1;align=center;" parent="1" vertex="1">
          <mxGeometry x="10" y="450" width="100" height="40" as="geometry" />
        </mxCell>
        <mxCell id="fPIb7x8nyOzm0vNO1Mxm-23" value="name of the album" style="ellipse;whiteSpace=wrap;html=1;align=center;" parent="1" vertex="1">
          <mxGeometry x="20" y="500" width="100" height="40" as="geometry" />
        </mxCell>
        <mxCell id="fPIb7x8nyOzm0vNO1Mxm-24" value="monthly sales" style="ellipse;whiteSpace=wrap;html=1;align=center;fontStyle=4;" parent="1" vertex="1">
          <mxGeometry x="50" y="590" width="100" height="40" as="geometry" />
        </mxCell>
        <mxCell id="fPIb7x8nyOzm0vNO1Mxm-25" value="represeentative" style="whiteSpace=wrap;html=1;align=center;" parent="1" vertex="1">
          <mxGeometry x="540" y="470" width="100" height="40" as="geometry" />
        </mxCell>
        <mxCell id="fPIb7x8nyOzm0vNO1Mxm-26" value="SIN" style="ellipse;whiteSpace=wrap;html=1;align=center;fontStyle=4;" parent="1" vertex="1">
          <mxGeometry x="650" y="370" width="100" height="40" as="geometry" />
        </mxCell>
        <mxCell id="fPIb7x8nyOzm0vNO1Mxm-29" value="first name" style="ellipse;whiteSpace=wrap;html=1;align=center;" parent="1" vertex="1">
          <mxGeometry x="670" y="420" width="100" height="40" as="geometry" />
        </mxCell>
        <mxCell id="fPIb7x8nyOzm0vNO1Mxm-31" value="last name" style="ellipse;whiteSpace=wrap;html=1;align=center;" parent="1" vertex="1">
          <mxGeometry x="700" y="470" width="100" height="40" as="geometry" />
        </mxCell>
        <mxCell id="fPIb7x8nyOzm0vNO1Mxm-32" value="label name" style="ellipse;whiteSpace=wrap;html=1;align=center;" parent="1" vertex="1">
          <mxGeometry x="660" y="530" width="100" height="40" as="geometry" />
        </mxCell>
        <mxCell id="fPIb7x8nyOzm0vNO1Mxm-33" value="email address" style="ellipse;whiteSpace=wrap;html=1;align=center;" parent="1" vertex="1">
          <mxGeometry x="640" y="580" width="100" height="40" as="geometry" />
        </mxCell>
        <mxCell id="fPIb7x8nyOzm0vNO1Mxm-34" value="writer" style="whiteSpace=wrap;html=1;align=center;" parent="1" vertex="1">
          <mxGeometry x="360" y="670" width="100" height="40" as="geometry" />
        </mxCell>
        <mxCell id="fPIb7x8nyOzm0vNO1Mxm-35" value="SIN" style="ellipse;whiteSpace=wrap;html=1;align=center;fontStyle=4;" parent="1" vertex="1">
          <mxGeometry x="490" y="670" width="100" height="40" as="geometry" />
        </mxCell>
        <mxCell id="fPIb7x8nyOzm0vNO1Mxm-36" value="first name" style="ellipse;whiteSpace=wrap;html=1;align=center;" parent="1" vertex="1">
          <mxGeometry x="400" y="720" width="100" height="40" as="geometry" />
        </mxCell>
        <mxCell id="fPIb7x8nyOzm0vNO1Mxm-37" value="last name" style="ellipse;whiteSpace=wrap;html=1;align=center;" parent="1" vertex="1">
          <mxGeometry x="510" y="720" width="100" height="40" as="geometry" />
        </mxCell>
        <mxCell id="MCb7gNTajN006iMk4Vwa-2" style="edgeStyle=orthogonalEdgeStyle;rounded=0;orthogonalLoop=1;jettySize=auto;html=1;exitX=0.5;exitY=1;exitDx=0;exitDy=0;" edge="1" parent="1" source="fPIb7x8nyOzm0vNO1Mxm-22" target="fPIb7x8nyOzm0vNO1Mxm-22">
          <mxGeometry relative="1" as="geometry" />
        </mxCell>
        <mxCell id="MCb7gNTajN006iMk4Vwa-9" value="" style="endArrow=none;html=1;rounded=0;entryX=0;entryY=0.5;entryDx=0;entryDy=0;exitX=0.5;exitY=0;exitDx=0;exitDy=0;" edge="1" parent="1" source="fPIb7x8nyOzm0vNO1Mxm-25" target="fPIb7x8nyOzm0vNO1Mxm-26">
          <mxGeometry relative="1" as="geometry">
            <mxPoint x="330" y="390" as="sourcePoint" />
            <mxPoint x="490" y="390" as="targetPoint" />
          </mxGeometry>
        </mxCell>
        <mxCell id="MCb7gNTajN006iMk4Vwa-10" value="" style="endArrow=none;html=1;rounded=0;entryX=0;entryY=0.5;entryDx=0;entryDy=0;exitX=0.6;exitY=-0.05;exitDx=0;exitDy=0;exitPerimeter=0;" edge="1" parent="1" source="fPIb7x8nyOzm0vNO1Mxm-25" target="fPIb7x8nyOzm0vNO1Mxm-29">
          <mxGeometry relative="1" as="geometry">
            <mxPoint x="460" y="400" as="sourcePoint" />
            <mxPoint x="620" y="400" as="targetPoint" />
          </mxGeometry>
        </mxCell>
        <mxCell id="MCb7gNTajN006iMk4Vwa-12" value="" style="endArrow=none;html=1;rounded=0;exitX=1;exitY=0.75;exitDx=0;exitDy=0;entryX=0.018;entryY=0.634;entryDx=0;entryDy=0;entryPerimeter=0;" edge="1" parent="1" source="fPIb7x8nyOzm0vNO1Mxm-25" target="fPIb7x8nyOzm0vNO1Mxm-31">
          <mxGeometry relative="1" as="geometry">
            <mxPoint x="640" y="490" as="sourcePoint" />
            <mxPoint x="700" y="490" as="targetPoint" />
          </mxGeometry>
        </mxCell>
        <mxCell id="MCb7gNTajN006iMk4Vwa-13" value="" style="endArrow=none;html=1;rounded=0;exitX=0.5;exitY=0;exitDx=0;exitDy=0;entryX=0.056;entryY=0.703;entryDx=0;entryDy=0;entryPerimeter=0;" edge="1" parent="1" source="fPIb7x8nyOzm0vNO1Mxm-3" target="fPIb7x8nyOzm0vNO1Mxm-14">
          <mxGeometry relative="1" as="geometry">
            <mxPoint x="510" y="179" as="sourcePoint" />
            <mxPoint x="670" y="179" as="targetPoint" />
          </mxGeometry>
        </mxCell>
        <mxCell id="MCb7gNTajN006iMk4Vwa-14" value="" style="endArrow=none;html=1;rounded=0;exitX=0.5;exitY=1;exitDx=0;exitDy=0;entryX=0.066;entryY=0.272;entryDx=0;entryDy=0;entryPerimeter=0;" edge="1" parent="1" source="fPIb7x8nyOzm0vNO1Mxm-3" target="fPIb7x8nyOzm0vNO1Mxm-16">
          <mxGeometry relative="1" as="geometry">
            <mxPoint x="520" y="249.5" as="sourcePoint" />
            <mxPoint x="680" y="249.5" as="targetPoint" />
          </mxGeometry>
        </mxCell>
        <mxCell id="MCb7gNTajN006iMk4Vwa-15" value="" style="endArrow=none;html=1;rounded=0;exitX=0.045;exitY=0.29;exitDx=0;exitDy=0;exitPerimeter=0;entryX=0.59;entryY=1.066;entryDx=0;entryDy=0;entryPerimeter=0;" edge="1" parent="1" source="fPIb7x8nyOzm0vNO1Mxm-32" target="fPIb7x8nyOzm0vNO1Mxm-25">
          <mxGeometry relative="1" as="geometry">
            <mxPoint x="661" y="550" as="sourcePoint" />
            <mxPoint x="591" y="510" as="targetPoint" />
          </mxGeometry>
        </mxCell>
        <mxCell id="MCb7gNTajN006iMk4Vwa-16" value="" style="endArrow=none;html=1;rounded=0;entryX=0.5;entryY=1;entryDx=0;entryDy=0;exitX=0;exitY=0.5;exitDx=0;exitDy=0;" edge="1" parent="1" source="fPIb7x8nyOzm0vNO1Mxm-33" target="fPIb7x8nyOzm0vNO1Mxm-25">
          <mxGeometry relative="1" as="geometry">
            <mxPoint x="630" y="590" as="sourcePoint" />
            <mxPoint x="790" y="590" as="targetPoint" />
          </mxGeometry>
        </mxCell>
        <mxCell id="MCb7gNTajN006iMk4Vwa-17" value="" style="endArrow=none;html=1;rounded=0;entryX=0;entryY=0.5;entryDx=0;entryDy=0;exitX=1;exitY=0.5;exitDx=0;exitDy=0;" edge="1" parent="1" source="fPIb7x8nyOzm0vNO1Mxm-3" target="fPIb7x8nyOzm0vNO1Mxm-15">
          <mxGeometry relative="1" as="geometry">
            <mxPoint x="660" y="200" as="sourcePoint" />
            <mxPoint x="820" y="200" as="targetPoint" />
          </mxGeometry>
        </mxCell>
        <mxCell id="MCb7gNTajN006iMk4Vwa-18" value="" style="endArrow=none;html=1;rounded=0;exitX=0;exitY=1;exitDx=0;exitDy=0;entryX=0.445;entryY=0.014;entryDx=0;entryDy=0;entryPerimeter=0;" edge="1" parent="1" source="fPIb7x8nyOzm0vNO1Mxm-13" target="fPIb7x8nyOzm0vNO1Mxm-3">
          <mxGeometry relative="1" as="geometry">
            <mxPoint x="640" y="160" as="sourcePoint" />
            <mxPoint x="610" y="190" as="targetPoint" />
          </mxGeometry>
        </mxCell>
        <mxCell id="MCb7gNTajN006iMk4Vwa-19" value="" style="endArrow=none;html=1;rounded=0;entryX=0.25;entryY=0;entryDx=0;entryDy=0;exitX=1;exitY=1;exitDx=0;exitDy=0;" edge="1" parent="1" source="fPIb7x8nyOzm0vNO1Mxm-12" target="fPIb7x8nyOzm0vNO1Mxm-3">
          <mxGeometry relative="1" as="geometry">
            <mxPoint x="550" y="170" as="sourcePoint" />
            <mxPoint x="710" y="170" as="targetPoint" />
          </mxGeometry>
        </mxCell>
        <mxCell id="MCb7gNTajN006iMk4Vwa-20" value="" style="endArrow=none;html=1;rounded=0;entryX=0.09;entryY=0;entryDx=0;entryDy=0;entryPerimeter=0;exitX=1;exitY=0.5;exitDx=0;exitDy=0;" edge="1" parent="1" source="fPIb7x8nyOzm0vNO1Mxm-7" target="MCb7gNTajN006iMk4Vwa-40">
          <mxGeometry relative="1" as="geometry">
            <mxPoint x="180" y="220" as="sourcePoint" />
            <mxPoint x="209" y="230" as="targetPoint" />
          </mxGeometry>
        </mxCell>
        <mxCell id="MCb7gNTajN006iMk4Vwa-21" value="" style="endArrow=none;html=1;rounded=0;entryX=0.5;entryY=0;entryDx=0;entryDy=0;exitX=0.621;exitY=1.04;exitDx=0;exitDy=0;exitPerimeter=0;" edge="1" parent="1" source="MCb7gNTajN006iMk4Vwa-41" target="MCb7gNTajN006iMk4Vwa-40">
          <mxGeometry relative="1" as="geometry">
            <mxPoint x="192.37000000000012" y="184.07499999999993" as="sourcePoint" />
            <mxPoint x="234" y="240" as="targetPoint" />
          </mxGeometry>
        </mxCell>
        <mxCell id="MCb7gNTajN006iMk4Vwa-22" value="" style="endArrow=none;html=1;rounded=0;entryX=0.5;entryY=0;entryDx=0;entryDy=0;exitX=0;exitY=1;exitDx=0;exitDy=0;" edge="1" parent="1" source="fPIb7x8nyOzm0vNO1Mxm-6" target="MCb7gNTajN006iMk4Vwa-40">
          <mxGeometry relative="1" as="geometry">
            <mxPoint x="300" y="180" as="sourcePoint" />
            <mxPoint x="261" y="230" as="targetPoint" />
          </mxGeometry>
        </mxCell>
        <mxCell id="MCb7gNTajN006iMk4Vwa-23" value="" style="endArrow=none;html=1;rounded=0;entryX=0.5;entryY=1;entryDx=0;entryDy=0;exitX=1;exitY=0.75;exitDx=0;exitDy=0;" edge="1" parent="1" source="MCb7gNTajN006iMk4Vwa-40" target="fPIb7x8nyOzm0vNO1Mxm-8">
          <mxGeometry relative="1" as="geometry">
            <mxPoint x="300" y="240.32258064516134" as="sourcePoint" />
            <mxPoint x="460" y="250" as="targetPoint" />
          </mxGeometry>
        </mxCell>
        <mxCell id="MCb7gNTajN006iMk4Vwa-24" value="" style="endArrow=none;html=1;rounded=0;entryX=0;entryY=0;entryDx=0;entryDy=0;exitX=1;exitY=1;exitDx=0;exitDy=0;" edge="1" parent="1" source="fPIb7x8nyOzm0vNO1Mxm-18" target="fPIb7x8nyOzm0vNO1Mxm-2">
          <mxGeometry relative="1" as="geometry">
            <mxPoint x="160" y="380" as="sourcePoint" />
            <mxPoint x="190" y="460" as="targetPoint" />
          </mxGeometry>
        </mxCell>
        <mxCell id="MCb7gNTajN006iMk4Vwa-25" value="" style="endArrow=none;html=1;rounded=0;entryX=0;entryY=0.25;entryDx=0;entryDy=0;" edge="1" parent="1" target="fPIb7x8nyOzm0vNO1Mxm-2">
          <mxGeometry relative="1" as="geometry">
            <mxPoint x="120" y="430" as="sourcePoint" />
            <mxPoint x="280" y="430" as="targetPoint" />
          </mxGeometry>
        </mxCell>
        <mxCell id="MCb7gNTajN006iMk4Vwa-30" value="" style="endArrow=none;html=1;rounded=0;entryX=0;entryY=0.75;entryDx=0;entryDy=0;" edge="1" parent="1" target="fPIb7x8nyOzm0vNO1Mxm-2">
          <mxGeometry relative="1" as="geometry">
            <mxPoint x="99" y="480" as="sourcePoint" />
            <mxPoint x="179" y="490" as="targetPoint" />
          </mxGeometry>
        </mxCell>
        <mxCell id="MCb7gNTajN006iMk4Vwa-32" value="" style="endArrow=none;html=1;rounded=0;exitX=1;exitY=0.5;exitDx=0;exitDy=0;entryX=0;entryY=0.5;entryDx=0;entryDy=0;" edge="1" parent="1" source="fPIb7x8nyOzm0vNO1Mxm-23" target="fPIb7x8nyOzm0vNO1Mxm-2">
          <mxGeometry relative="1" as="geometry">
            <mxPoint x="160" y="390" as="sourcePoint" />
            <mxPoint x="320" y="390" as="targetPoint" />
          </mxGeometry>
        </mxCell>
        <mxCell id="MCb7gNTajN006iMk4Vwa-33" value="" style="endArrow=none;html=1;rounded=0;exitX=1;exitY=0.5;exitDx=0;exitDy=0;entryX=0;entryY=0.5;entryDx=0;entryDy=0;" edge="1" parent="1" source="fPIb7x8nyOzm0vNO1Mxm-17" target="fPIb7x8nyOzm0vNO1Mxm-2">
          <mxGeometry relative="1" as="geometry">
            <mxPoint x="160" y="390" as="sourcePoint" />
            <mxPoint x="320" y="390" as="targetPoint" />
          </mxGeometry>
        </mxCell>
        <mxCell id="MCb7gNTajN006iMk4Vwa-34" value="" style="endArrow=none;html=1;rounded=0;exitX=1;exitY=0.5;exitDx=0;exitDy=0;entryX=0;entryY=0.75;entryDx=0;entryDy=0;" edge="1" parent="1" source="fPIb7x8nyOzm0vNO1Mxm-24" target="fPIb7x8nyOzm0vNO1Mxm-2">
          <mxGeometry relative="1" as="geometry">
            <mxPoint x="160" y="390" as="sourcePoint" />
            <mxPoint x="180" y="490" as="targetPoint" />
          </mxGeometry>
        </mxCell>
        <mxCell id="MCb7gNTajN006iMk4Vwa-35" value="" style="endArrow=none;html=1;rounded=0;exitX=1;exitY=0.5;exitDx=0;exitDy=0;entryX=0;entryY=1;entryDx=0;entryDy=0;" edge="1" parent="1" source="MCb7gNTajN006iMk4Vwa-44" target="fPIb7x8nyOzm0vNO1Mxm-34">
          <mxGeometry relative="1" as="geometry">
            <mxPoint x="310" y="710" as="sourcePoint" />
            <mxPoint x="320" y="390" as="targetPoint" />
          </mxGeometry>
        </mxCell>
        <mxCell id="MCb7gNTajN006iMk4Vwa-36" value="" style="endArrow=none;html=1;rounded=0;exitX=0;exitY=0;exitDx=0;exitDy=0;entryX=0.25;entryY=1;entryDx=0;entryDy=0;" edge="1" parent="1" source="fPIb7x8nyOzm0vNO1Mxm-36" target="fPIb7x8nyOzm0vNO1Mxm-34">
          <mxGeometry relative="1" as="geometry">
            <mxPoint x="160" y="390" as="sourcePoint" />
            <mxPoint x="320" y="390" as="targetPoint" />
          </mxGeometry>
        </mxCell>
        <mxCell id="MCb7gNTajN006iMk4Vwa-37" value="" style="endArrow=none;html=1;rounded=0;entryX=0;entryY=0.5;entryDx=0;entryDy=0;exitX=1;exitY=0.75;exitDx=0;exitDy=0;" edge="1" parent="1" source="fPIb7x8nyOzm0vNO1Mxm-34" target="fPIb7x8nyOzm0vNO1Mxm-35">
          <mxGeometry relative="1" as="geometry">
            <mxPoint x="160" y="390" as="sourcePoint" />
            <mxPoint x="320" y="390" as="targetPoint" />
          </mxGeometry>
        </mxCell>
        <mxCell id="MCb7gNTajN006iMk4Vwa-39" value="" style="endArrow=none;html=1;rounded=0;entryX=0;entryY=0;entryDx=0;entryDy=0;exitX=1;exitY=1;exitDx=0;exitDy=0;" edge="1" parent="1" source="fPIb7x8nyOzm0vNO1Mxm-34" target="fPIb7x8nyOzm0vNO1Mxm-37">
          <mxGeometry relative="1" as="geometry">
            <mxPoint x="160" y="390" as="sourcePoint" />
            <mxPoint x="320" y="390" as="targetPoint" />
          </mxGeometry>
        </mxCell>
        <mxCell id="MCb7gNTajN006iMk4Vwa-40" value="artist" style="shape=ext;margin=3;double=1;whiteSpace=wrap;html=1;align=center;" vertex="1" parent="1">
          <mxGeometry x="200" y="230" width="100" height="40" as="geometry" />
        </mxCell>
        <mxCell id="MCb7gNTajN006iMk4Vwa-41" value="&lt;span style=&quot;border-bottom: 1px dotted&quot;&gt;name&lt;br&gt;&lt;/span&gt;" style="ellipse;whiteSpace=wrap;html=1;align=center;" vertex="1" parent="1">
          <mxGeometry x="130" y="140" width="100" height="40" as="geometry" />
        </mxCell>
        <mxCell id="MCb7gNTajN006iMk4Vwa-42" value="&lt;span style=&quot;color: rgb(45 , 59 , 69) ; font-family: &amp;#34;lato extended&amp;#34; , &amp;#34;lato&amp;#34; , &amp;#34;helvetica neue&amp;#34; , &amp;#34;helvetica&amp;#34; , &amp;#34;arial&amp;#34; , sans-serif ; background-color: rgb(255 , 255 , 255)&quot;&gt;revenue&lt;/span&gt;" style="ellipse;whiteSpace=wrap;html=1;align=center;dashed=1;" vertex="1" parent="1">
          <mxGeometry x="560" y="260" width="100" height="40" as="geometry" />
        </mxCell>
        <mxCell id="MCb7gNTajN006iMk4Vwa-43" value="" style="endArrow=none;html=1;rounded=0;entryX=0.5;entryY=0;entryDx=0;entryDy=0;exitX=0.5;exitY=1;exitDx=0;exitDy=0;" edge="1" parent="1" source="fPIb7x8nyOzm0vNO1Mxm-3" target="MCb7gNTajN006iMk4Vwa-42">
          <mxGeometry relative="1" as="geometry">
            <mxPoint x="470" y="250" as="sourcePoint" />
            <mxPoint x="630" y="250" as="targetPoint" />
          </mxGeometry>
        </mxCell>
        <mxCell id="MCb7gNTajN006iMk4Vwa-44" value="percentage of royalty" style="ellipse;whiteSpace=wrap;html=1;align=center;dashed=1;" vertex="1" parent="1">
          <mxGeometry x="210" y="700" width="100" height="40" as="geometry" />
        </mxCell>
        <mxCell id="MCb7gNTajN006iMk4Vwa-45" value="have" style="shape=rhombus;perimeter=rhombusPerimeter;whiteSpace=wrap;html=1;align=center;" vertex="1" parent="1">
          <mxGeometry x="294" y="535" width="120" height="60" as="geometry" />
        </mxCell>
        <mxCell id="MCb7gNTajN006iMk4Vwa-47" value="" style="endArrow=none;html=1;entryX=0;entryY=0;entryDx=0;entryDy=0;exitX=0.5;exitY=1;exitDx=0;exitDy=0;" edge="1" parent="1" source="MCb7gNTajN006iMk4Vwa-45" target="fPIb7x8nyOzm0vNO1Mxm-34">
          <mxGeometry width="50" height="50" relative="1" as="geometry">
            <mxPoint x="330" y="530" as="sourcePoint" />
            <mxPoint x="380" y="480" as="targetPoint" />
          </mxGeometry>
        </mxCell>
        <mxCell id="MCb7gNTajN006iMk4Vwa-48" value="" style="endArrow=none;html=1;entryX=0.75;entryY=1;entryDx=0;entryDy=0;exitX=0.5;exitY=0;exitDx=0;exitDy=0;strokeWidth=5;" edge="1" parent="1" source="MCb7gNTajN006iMk4Vwa-45" target="fPIb7x8nyOzm0vNO1Mxm-2">
          <mxGeometry width="50" height="50" relative="1" as="geometry">
            <mxPoint x="280" y="530" as="sourcePoint" />
            <mxPoint x="330" y="480" as="targetPoint" />
          </mxGeometry>
        </mxCell>
        <mxCell id="MCb7gNTajN006iMk4Vwa-49" value="ISA" style="shape=rhombus;perimeter=rhombusPerimeter;whiteSpace=wrap;html=1;align=center;rotation=-5;rounded=0;sketch=0;shadow=0;" vertex="1" parent="1">
          <mxGeometry x="380" y="230" width="120" height="60" as="geometry" />
        </mxCell>
        <mxCell id="MCb7gNTajN006iMk4Vwa-50" value="" style="endArrow=none;html=1;strokeWidth=5;entryX=0;entryY=0.5;entryDx=0;entryDy=0;exitX=1;exitY=1;exitDx=0;exitDy=0;" edge="1" parent="1" source="MCb7gNTajN006iMk4Vwa-40" target="MCb7gNTajN006iMk4Vwa-49">
          <mxGeometry width="50" height="50" relative="1" as="geometry">
            <mxPoint x="300" y="310" as="sourcePoint" />
            <mxPoint x="350" y="260" as="targetPoint" />
          </mxGeometry>
        </mxCell>
        <mxCell id="MCb7gNTajN006iMk4Vwa-51" value="" style="endArrow=none;html=1;strokeWidth=2;entryX=0.058;entryY=0.979;entryDx=0;entryDy=0;entryPerimeter=0;exitX=1;exitY=0.5;exitDx=0;exitDy=0;" edge="1" parent="1" source="MCb7gNTajN006iMk4Vwa-49" target="fPIb7x8nyOzm0vNO1Mxm-3">
          <mxGeometry width="50" height="50" relative="1" as="geometry">
            <mxPoint x="500" y="270" as="sourcePoint" />
            <mxPoint x="550" y="220" as="targetPoint" />
          </mxGeometry>
        </mxCell>
        <mxCell id="MCb7gNTajN006iMk4Vwa-54" value="record" style="shape=rhombus;perimeter=rhombusPerimeter;whiteSpace=wrap;html=1;align=center;fillColor=none;" vertex="1" parent="1">
          <mxGeometry x="230" y="350" width="120" height="60" as="geometry" />
        </mxCell>
        <mxCell id="MCb7gNTajN006iMk4Vwa-55" value="" style="endArrow=classic;html=1;strokeWidth=1;entryX=0.5;entryY=1;entryDx=0;entryDy=0;" edge="1" parent="1" target="MCb7gNTajN006iMk4Vwa-54">
          <mxGeometry width="50" height="50" relative="1" as="geometry">
            <mxPoint x="280" y="450" as="sourcePoint" />
            <mxPoint x="330" y="400" as="targetPoint" />
          </mxGeometry>
        </mxCell>
        <mxCell id="MCb7gNTajN006iMk4Vwa-57" value="" style="endArrow=none;html=1;strokeWidth=1;entryX=0.5;entryY=0;entryDx=0;entryDy=0;" edge="1" parent="1" source="MCb7gNTajN006iMk4Vwa-40" target="MCb7gNTajN006iMk4Vwa-54">
          <mxGeometry width="50" height="50" relative="1" as="geometry">
            <mxPoint x="250" y="320" as="sourcePoint" />
            <mxPoint x="250" y="340.71067811865476" as="targetPoint" />
          </mxGeometry>
        </mxCell>
      </root>
    </mxGraphModel>
  </diagram>
</mxfile>
